<svg width="22" height="21" viewBox="0 0 22 21" fill="none" xmlns="http://www.w3.org/2000/svg">
<path d="M2.64398 0.745517L1.64567 1.49104H1.3586C0.823022 1.49532 0.34743 1.8081 0.107491 2.31369C0.017514 2.50649 0.017514 2.51935 0.00466018 6.95821C-0.00819367 11.9798 -0.0167629 11.8213 0.300299 12.4639C0.531668 12.931 0.994407 13.4108 1.43144 13.6336C1.59854 13.7151 3.10672 14.3235 4.78629 14.979C6.46158 15.6346 7.82409 16.183 7.80695 16.2001C7.78124 16.2173 1.52141 18.6638 0.84016 18.9209C0.771607 18.9466 0.767322 18.8952 0.767322 18.2482C0.767322 17.6269 0.775891 17.5326 0.857299 17.3655C0.977268 17.117 1.14437 16.9971 1.59854 16.8385C2.32692 16.5815 3.11101 16.1487 3.48805 15.7931C3.60374 15.6817 3.63802 15.6174 3.63802 15.5017C3.63802 15.129 3.29953 15.009 2.94819 15.2575C2.29693 15.7074 1.91988 15.9088 1.32861 16.1187C0.741614 16.3244 0.45026 16.5386 0.218891 16.9242C0.017514 17.2713 -0.00819367 17.4812 0.00466018 18.7109C0.017514 19.8506 0.017514 19.8635 0.128914 20.0991C0.34743 20.5662 0.711622 20.8489 1.21721 20.9561C1.43572 20.9989 1.52141 20.9989 1.75278 20.9432C1.90703 20.9089 4.04077 20.0948 6.49585 19.1351L10.9647 17.3955L15.515 19.1822L20.0695 20.9732H20.4766C20.8408 20.9732 20.9093 20.9603 21.1107 20.8532C21.4106 20.6947 21.6591 20.4376 21.8005 20.142C21.9119 19.902 21.9119 19.8935 21.9248 18.7323C21.9376 17.7426 21.929 17.5241 21.8691 17.3184C21.7705 16.9928 21.6206 16.7443 21.3978 16.5472C21.1707 16.3458 21.0507 16.2858 20.4551 16.0673C19.9324 15.8745 19.5168 15.6517 19.1012 15.3389C18.8098 15.1204 18.2914 14.632 18.2914 14.5763C18.2914 14.5591 18.7113 14.3792 19.2255 14.1821C19.7353 13.985 20.2623 13.7708 20.3909 13.7065C20.9564 13.428 21.4063 12.9695 21.672 12.4125C21.9205 11.877 21.9119 12.0655 21.9119 7.11246V2.54934L21.8176 2.34796C21.6848 2.05661 21.372 1.73955 21.1107 1.62815C20.9864 1.57673 20.7422 1.52103 20.5623 1.50389L20.2409 1.4739L19.2597 0.736948C18.5313 0.192801 18.2443 -6.56262e-06 18.1586 -6.56262e-06C17.9358 -6.56262e-06 13.6469 1.01545 13.2998 1.15256C12.5243 1.45248 11.7359 2.0866 11.2646 2.79356C11.1232 3.00351 11.0076 3.19632 11.0076 3.21774C11.0076 3.30772 10.9304 3.24345 10.8362 3.07206C10.3263 2.15087 9.37512 1.38392 8.32967 1.05401C7.89264 0.912617 3.92937 -6.56262e-06 3.76655 -6.56262e-06C3.67229 -6.56262e-06 3.39379 0.184232 2.64398 0.745517ZM5.96028 1.26396C6.93289 1.48676 7.86265 1.71384 8.02975 1.76097C9.20802 2.11231 10.1635 3.07206 10.4977 4.24176C10.5577 4.44742 10.5791 4.66166 10.5791 5.06441C10.5791 5.58285 10.5834 5.61284 10.6905 5.73709C10.8319 5.90419 11.0333 5.91705 11.2089 5.76709C11.3289 5.66426 11.3289 5.65997 11.3546 5.00443C11.376 4.32746 11.436 4.06609 11.6545 3.63335C12.0359 2.88354 12.6914 2.26227 13.4284 1.93664C13.8183 1.76526 14.0454 1.70527 15.9777 1.26396C16.8603 1.06258 17.6187 0.886909 17.6616 0.874055C17.7301 0.852632 17.7344 1.04972 17.7344 4.55882V8.2693L17.6359 8.29073C17.5844 8.30358 16.6718 8.51353 15.6135 8.75775C14.5509 9.00197 13.5269 9.26333 13.3427 9.33617C12.67 9.59325 11.993 10.0688 11.5688 10.583L11.3503 10.8444V9.9403C11.3503 8.94627 11.3289 8.83916 11.1018 8.7449C10.9433 8.67634 10.7719 8.72347 10.6648 8.8563C10.5834 8.95913 10.5791 9.03197 10.5791 9.9146V10.8615L10.442 10.6901C9.94069 10.0603 9.18659 9.53327 8.43679 9.28047C8.19685 9.20335 4.26785 8.2693 4.16931 8.2693C4.16074 8.2693 4.15217 7.2667 4.15217 6.0413V3.80902L4.04505 3.70619C3.89081 3.54766 3.67658 3.54766 3.50948 3.71047L3.40236 3.8133L3.38951 6.10986L3.37665 8.40213L2.79823 8.86058C2.47688 9.11337 2.19838 9.32332 2.17696 9.33189C2.15554 9.34046 2.1384 7.8794 2.1384 5.71139L2.14268 2.07803L2.75538 1.61958L3.37237 1.16112L3.38951 1.60672C3.40236 2.00519 3.41522 2.06518 3.50519 2.15944C3.64658 2.3094 3.89938 2.31369 4.04505 2.16373C4.14788 2.06518 4.15217 2.03947 4.15217 1.45676C4.15217 1.12685 4.16074 0.856917 4.16931 0.856917C4.18216 0.856917 4.98339 1.04116 5.96028 1.26396ZM19.1826 1.62815L19.7867 2.07803L19.791 6.00274V9.92317L16.2048 11.3242C14.2296 12.0955 12.5929 12.7253 12.5672 12.7253C12.5372 12.7253 12.4001 12.6696 12.2587 12.5968C12.1216 12.5282 11.8859 12.4382 11.7402 12.3997C11.4874 12.3268 11.4746 12.3183 11.5003 12.2154C11.5131 12.1555 11.586 11.9798 11.6631 11.8255C12.0916 10.9643 12.8971 10.2831 13.8226 9.99172C14.0539 9.91888 15.0951 9.6618 16.1405 9.42187L18.0386 8.98912L18.2871 9.18621C18.4242 9.29333 18.587 9.40044 18.647 9.43043C18.8827 9.53755 19.1483 9.35331 19.1483 9.08767C19.1483 8.90343 19.0798 8.81345 18.7284 8.5478L18.5056 8.3807V4.76449C18.5056 2.77642 18.5228 1.15684 18.5442 1.16541C18.5613 1.16969 18.8527 1.37964 19.1826 1.62815ZM1.36717 6.31123V10.3559L1.46143 10.4416C1.51713 10.4887 3.27382 11.2 5.37329 12.0183C7.9312 13.0124 9.27229 13.5565 9.44367 13.6679C9.82072 13.9121 10.0992 14.0493 10.352 14.1221L10.5791 14.1864V14.5034V14.8205L10.4591 14.7776C10.3949 14.7562 8.19256 13.8907 5.56609 12.8624L0.788745 10.99L0.775891 6.85966C0.767322 3.07635 0.771607 2.72073 0.84016 2.58362C0.917284 2.41652 1.11866 2.27084 1.27291 2.27084H1.36717V6.31123ZM20.8965 2.38224C20.9522 2.41652 21.0336 2.50649 21.0764 2.58362C21.1578 2.71644 21.1621 2.83212 21.1621 6.85966C21.1621 10.1331 21.1492 11.0072 21.1107 11.0243C21.0164 11.0586 11.5474 14.7476 11.4489 14.7862C11.3503 14.8205 11.3503 14.8162 11.3503 14.5034V14.1864L11.5303 14.1349C11.7531 14.075 12.2372 13.835 12.5029 13.6551C12.6229 13.5694 14.1739 12.9438 16.5347 12.0226C19.294 10.9472 20.3952 10.5016 20.468 10.4245L20.5623 10.3216V6.28981V2.26227L20.6822 2.29226C20.7465 2.30512 20.8408 2.34796 20.8965 2.38224ZM5.78032 9.42615C7.90121 9.9146 8.16686 9.98743 8.50962 10.1417C9.07091 10.3945 9.67076 10.9001 10.0178 11.4099C10.1549 11.6156 10.4506 12.2112 10.4506 12.2883C10.4506 12.3097 10.3306 12.3611 10.1806 12.3997C10.0307 12.4425 9.79929 12.5282 9.6579 12.6011C9.52079 12.6696 9.38797 12.7253 9.35798 12.7253C9.29371 12.7253 2.60114 10.116 2.55829 10.0731C2.5283 10.0474 3.83082 8.99769 3.89509 8.99769C3.90795 8.99769 4.7563 9.1905 5.78032 9.42615ZM5.90458 13.8179C8.63816 14.889 10.9176 15.7674 10.9604 15.7674C11.0076 15.7674 13.2955 14.889 16.0506 13.8179C18.8013 12.7467 21.0593 11.877 21.0636 11.8855C21.0721 11.8898 21.0207 12.0141 20.9479 12.1555C20.8022 12.4425 20.4209 12.8367 20.1466 12.9738C20.0524 13.0252 18.7541 13.5394 17.2631 14.1178C15.7721 14.6962 14.4952 15.2018 14.431 15.2361C14.0882 15.4118 14.191 15.9388 14.5681 15.9388C14.6452 15.9388 15.3307 15.6945 16.0891 15.3989L17.473 14.8633L17.9572 15.3475C18.677 16.0673 19.3711 16.5043 20.3352 16.8428C20.7893 17.0014 20.9522 17.117 21.0721 17.3655C21.1578 17.5412 21.1621 17.6141 21.1535 18.261L21.1407 18.968L17.1131 17.387C14.898 16.5215 13.0513 15.8102 13.0085 15.8102C12.9099 15.8102 12.76 15.8916 12.6914 15.9773C12.6014 16.093 12.6229 16.3415 12.7343 16.4444C12.79 16.5001 14.5766 17.2199 16.946 18.1496C19.204 19.0323 21.0721 19.7735 21.0893 19.7906C21.1364 19.8378 20.9264 20.082 20.7722 20.1591C20.498 20.3005 20.498 20.3005 15.6864 18.4196C13.1456 17.4255 11.0204 16.6115 10.9561 16.6157C10.8919 16.6157 8.77099 17.4255 6.24306 18.411C2.584 19.8335 1.60711 20.202 1.44858 20.202C1.3029 20.202 1.20864 20.172 1.0801 20.082C0.891576 19.9492 0.780176 19.7735 0.865868 19.7392C0.89586 19.7264 2.75967 19.0023 5.00909 18.1239C7.25852 17.2499 9.14375 16.4915 9.19945 16.4401C9.31513 16.333 9.32799 16.0759 9.22087 15.9431C9.16946 15.8874 7.8755 15.3603 5.54467 14.4477C3.56518 13.6722 1.86847 12.9995 1.76992 12.9481C1.51285 12.8196 1.21721 12.5239 1.04582 12.2369C0.912999 12.0098 0.861584 11.8684 0.912999 11.8684C0.921568 11.8684 3.16671 12.7467 5.90458 13.8179ZM11.586 13.1538L11.7574 13.2095L11.5217 13.3209C11.2046 13.4708 10.7076 13.4751 10.3906 13.3337C10.2749 13.278 10.1935 13.2266 10.2063 13.2095C10.3434 13.0766 11.2175 13.0381 11.586 13.1538Z" fill="white"/>
<path d="M5.0734 2.20657C5.01342 2.26227 4.962 2.35225 4.962 2.40795C4.94058 2.76786 4.97057 2.78071 6.4659 3.12777C7.18572 3.29058 7.90553 3.46625 8.07263 3.51767C8.57393 3.66763 9.04953 3.94613 9.49084 4.34031C9.61081 4.45171 9.76077 4.55883 9.82076 4.58025C10.0521 4.67023 10.3221 4.46028 10.3221 4.19892C10.3221 4.07038 9.86789 3.60764 9.51655 3.37199C9.13093 3.11491 8.68533 2.8964 8.32971 2.78928C7.87554 2.65217 5.45045 2.09946 5.30477 2.09946C5.22765 2.09946 5.13767 2.13802 5.0734 2.20657Z" fill="white"/>
<path d="M15.1765 2.39937C13.6598 2.75071 13.3984 2.82783 12.9571 3.05063C12.3401 3.35912 11.6846 3.89042 11.6246 4.13036C11.5817 4.31459 11.6503 4.46884 11.8259 4.55453C12.0273 4.64879 12.1259 4.61452 12.4344 4.33602C12.8328 3.97182 13.2613 3.71475 13.7412 3.55193C13.8654 3.50909 14.5595 3.3377 15.2836 3.1706C16.0077 3.0035 16.6547 2.84497 16.719 2.81926C17.1132 2.66502 17.0103 2.09516 16.5904 2.10373C16.5005 2.10373 15.8621 2.23655 15.1765 2.39937Z" fill="white"/>
<path d="M5.05628 4.51169C4.9406 4.64023 4.92346 4.89302 5.03057 5.01299C5.12912 5.12439 5.18053 5.13725 6.59446 5.46288C7.99981 5.78851 8.24404 5.85706 8.6168 6.04559C8.96385 6.22125 9.19522 6.37979 9.51657 6.66685C9.7308 6.85966 9.80364 6.89822 9.93217 6.89822C10.215 6.89822 10.3863 6.64115 10.2792 6.37979C10.1678 6.10985 9.32804 5.49715 8.71963 5.23579C8.34258 5.07726 5.59186 4.41315 5.30907 4.41315C5.20196 4.41315 5.12483 4.44314 5.05628 4.51169Z" fill="white"/>
<path d="M15.9349 4.52883C15.6864 4.58882 15.0437 4.73878 14.5081 4.86732C13.1413 5.18438 12.52 5.4843 11.8645 6.12271C11.6503 6.33694 11.6074 6.39692 11.6074 6.52118C11.6074 6.73969 11.766 6.89822 11.9888 6.89822C12.1344 6.89822 12.1944 6.86395 12.4086 6.67114C12.85 6.26839 13.3256 5.9856 13.8568 5.82279C13.9982 5.77994 14.6966 5.60855 15.4122 5.44574C16.1277 5.27864 16.749 5.12439 16.7918 5.09868C16.9889 4.99157 17.0232 4.68308 16.8561 4.52026C16.7233 4.38315 16.5347 4.38315 15.9349 4.52883Z" fill="white"/>
<path d="M5.20193 6.72684C4.91914 6.83824 4.87201 7.27098 5.12909 7.40809C5.17193 7.42951 5.7932 7.58376 6.51302 7.75086C7.22855 7.91796 7.91409 8.08078 8.03406 8.11934C8.56964 8.27787 9.06665 8.56922 9.52082 8.98483C9.73077 9.17764 9.79504 9.21191 9.93643 9.21191C10.065 9.21191 10.1207 9.18621 10.2106 9.07909C10.412 8.83915 10.3349 8.65063 9.88073 8.2693C9.50368 7.94795 9.03666 7.66517 8.59963 7.49807C8.41967 7.42951 7.65701 7.22814 6.9072 7.05247C5.29619 6.67971 5.31333 6.68399 5.20193 6.72684Z" fill="white"/>
<path d="M16.4276 6.73112C15.8578 6.84252 13.7669 7.34382 13.5355 7.42094C12.7043 7.69088 11.6074 8.48353 11.6074 8.81344C11.6074 9.0491 11.766 9.20763 11.9973 9.21191C12.1259 9.21191 12.1987 9.16907 12.4258 8.96341C12.8757 8.55208 13.2313 8.33785 13.7497 8.16218C13.904 8.11077 14.6452 7.92653 15.3993 7.75086C16.9075 7.40381 16.9632 7.38238 16.9632 7.09531C16.9632 6.9325 16.8304 6.74826 16.6847 6.71398C16.6376 6.70113 16.5219 6.7097 16.4276 6.73112Z" fill="white"/>
</svg>
